<svg width="32" height="32" viewBox="0 0 32 32" fill="none" xmlns="http://www.w3.org/2000/svg">
<path opacity="0.4" d="M16.0003 29.3332C23.3641 29.3332 29.3337 23.3636 29.3337 15.9998C29.3337 8.63604 23.3641 2.6665 16.0003 2.6665C8.63653 2.6665 2.66699 8.63604 2.66699 15.9998C2.66699 23.3636 8.63653 29.3332 16.0003 29.3332Z" fill="white"/>
<path d="M17.4128 16L20.4795 12.9333C20.8662 12.5466 20.8662 11.9066 20.4795 11.52C20.0928 11.1333 19.4528 11.1333 19.0662 11.52L15.9995 14.5866L12.9328 11.52C12.5462 11.1333 11.9062 11.1333 11.5195 11.52C11.1328 11.9066 11.1328 12.5466 11.5195 12.9333L14.5862 16L11.5195 19.0666C11.1328 19.4533 11.1328 20.0933 11.5195 20.48C11.7195 20.68 11.9728 20.7733 12.2262 20.7733C12.4795 20.7733 12.7328 20.68 12.9328 20.48L15.9995 17.4133L19.0662 20.48C19.2662 20.68 19.5195 20.7733 19.7728 20.7733C20.0262 20.7733 20.2795 20.68 20.4795 20.48C20.8662 20.0933 20.8662 19.4533 20.4795 19.0666L17.4128 16Z" fill="white"/>
</svg>
